<svg xmlns="http://www.w3.org/2000/svg" viewBox="0 0 1600 900" fill="none">
  <defs>
    <linearGradient id="bg" x1="240" y1="90" x2="1390" y2="860" gradientUnits="userSpaceOnUse">
      <stop offset="0" stop-color="#ffe5ea"/>
      <stop offset="0.5" stop-color="#fff8ef"/>
      <stop offset="1" stop-color="#e3f2df"/>
    </linearGradient>
    <radialGradient id="glow" cx="0" cy="0" r="1" gradientUnits="userSpaceOnUse" gradientTransform="translate(820 210) rotate(90) scale(250 340)">
      <stop stop-color="#fff7d3"/>
      <stop offset="1" stop-color="#fff7d3" stop-opacity="0"/>
    </radialGradient>
    <filter id="blur" x="-20%" y="-20%" width="140%" height="140%">
      <feGaussianBlur stdDeviation="16"/>
    </filter>
  </defs>
  <rect width="1600" height="900" fill="url(#bg)"/>
  <rect x="498" y="88" width="604" height="498" rx="42" fill="#fffaf0" fill-opacity="0.58"/>
  <rect x="548" y="138" width="504" height="398" rx="24" fill="url(#glow)" opacity="0.94"/>
  <path d="M800 139V537" stroke="#f4ecd7" stroke-width="10" stroke-linecap="round"/>
  <path d="M549 339H1051" stroke="#f4ecd7" stroke-width="10" stroke-linecap="round"/>
  <g filter="url(#blur)" opacity="0.65">
    <circle cx="710" cy="236" r="120" fill="#ffe6b6"/>
    <circle cx="298" cy="200" r="130" fill="#ffd7e1"/>
    <circle cx="1320" cy="250" r="150" fill="#d7ebd1"/>
  </g>
  <path d="M0 662C199 610 372 624 524 654C754 699 971 717 1223 674C1387 645 1501 647 1600 673V900H0V662Z" fill="#e6f3df"/>
  <path d="M0 730C216 689 384 702 612 757C850 814 1091 807 1312 762C1431 738 1534 738 1600 751V900H0V730Z" fill="#f7d9e3" opacity="0.74"/>
  <g opacity="0.78">
    <path d="M135 511C230 498 315 514 386 560" stroke="#9fc59a" stroke-width="7" stroke-linecap="round"/>
    <path d="M183 491C206 439 244 397 293 365" stroke="#9fc59a" stroke-width="5" stroke-linecap="round"/>
    <path d="M1324 542C1245 500 1146 488 1059 503" stroke="#8fb98d" stroke-width="7" stroke-linecap="round"/>
    <path d="M1262 503C1239 452 1200 412 1147 384" stroke="#8fb98d" stroke-width="5" stroke-linecap="round"/>
  </g>
  <g opacity="0.72">
    <ellipse cx="241" cy="381" rx="24" ry="15" fill="#ffdce9"/>
    <ellipse cx="286" cy="334" rx="24" ry="15" fill="#ffe8f0"/>
    <ellipse cx="1199" cy="360" rx="25" ry="15" fill="#ffe0ea"/>
    <ellipse cx="1264" cy="404" rx="23" ry="14" fill="#ffe7ef"/>
  </g>
</svg>
