<svg xmlns="http://www.w3.org/2000/svg" viewBox="0 0 1600 900" fill="none">
  <defs>
    <linearGradient id="wall" x1="212" y1="42" x2="1410" y2="890" gradientUnits="userSpaceOnUse">
      <stop offset="0" stop-color="#ffe7eb"/>
      <stop offset="0.52" stop-color="#fff8ef"/>
      <stop offset="1" stop-color="#ecf5e7"/>
    </linearGradient>
    <linearGradient id="floor" x1="800" y1="540" x2="800" y2="900" gradientUnits="userSpaceOnUse">
      <stop stop-color="#f4dacd"/>
      <stop offset="1" stop-color="#edd0c0"/>
    </linearGradient>
    <radialGradient id="lamp" cx="0" cy="0" r="1" gradientUnits="userSpaceOnUse" gradientTransform="translate(1130 236) rotate(90) scale(180 180)">
      <stop stop-color="#fff2be"/>
      <stop offset="1" stop-color="#fff2be" stop-opacity="0"/>
    </radialGradient>
  </defs>
  <rect width="1600" height="900" fill="url(#wall)"/>
  <rect y="650" width="1600" height="250" fill="url(#floor)"/>
  <rect x="216" y="132" width="526" height="360" rx="30" fill="#fffaf2" fill-opacity="0.8"/>
  <rect x="256" y="170" width="446" height="284" rx="18" fill="#fef1f3"/>
  <rect x="301" y="170" width="356" height="284" rx="12" fill="#f7f2e7"/>
  <path d="M479 170V454" stroke="#e5dfd0" stroke-width="8" stroke-linecap="round"/>
  <path d="M301 310H657" stroke="#e5dfd0" stroke-width="8" stroke-linecap="round"/>
  <circle cx="1130" cy="236" r="174" fill="url(#lamp)"/>
  <rect x="1024" y="254" width="116" height="208" rx="20" fill="#fff6ec"/>
  <rect x="1058" y="218" width="48" height="44" rx="16" fill="#e8d1bb"/>
  <rect x="894" y="470" width="392" height="118" rx="30" fill="#f3d3d8"/>
  <rect x="862" y="560" width="458" height="86" rx="28" fill="#f8ebdc"/>
  <rect x="312" y="572" width="284" height="56" rx="22" fill="#f5e7d8"/>
  <rect x="356" y="520" width="196" height="58" rx="20" fill="#fff7ef"/>
  <ellipse cx="463" cy="547" rx="86" ry="21" fill="#f2d58b" fill-opacity="0.25"/>
  <g opacity="0.82">
    <circle cx="1050" cy="291" r="20" fill="#fff1d2"/>
    <circle cx="1096" cy="328" r="18" fill="#ffe7eb"/>
    <circle cx="1187" cy="282" r="18" fill="#f9efce"/>
  </g>
  <path d="M0 705C174 670 374 678 568 721C796 771 1032 777 1245 736C1398 706 1518 705 1600 718V900H0V705Z" fill="#f4dce3" opacity="0.54"/>
</svg>
