<svg xmlns="http://www.w3.org/2000/svg" viewBox="0 0 700 980" fill="none">
  <defs>
    <linearGradient id="bg" x1="120" y1="80" x2="560" y2="900" gradientUnits="userSpaceOnUse">
      <stop offset="0" stop-color="#fff5ef"/>
      <stop offset="0.58" stop-color="#ffe7ec"/>
      <stop offset="1" stop-color="#edf6e7"/>
    </linearGradient>
    <linearGradient id="hair" x1="284" y1="186" x2="450" y2="752" gradientUnits="userSpaceOnUse">
      <stop offset="0" stop-color="#f4e5b6"/>
      <stop offset="0.45" stop-color="#e5c98e"/>
      <stop offset="1" stop-color="#d4b374"/>
    </linearGradient>
    <linearGradient id="sweater" x1="196" y1="566" x2="528" y2="896" gradientUnits="userSpaceOnUse">
      <stop offset="0" stop-color="#fbf4ee"/>
      <stop offset="0.54" stop-color="#f0e4df"/>
      <stop offset="1" stop-color="#e9efe2"/>
    </linearGradient>
    <filter id="shadow" x="-20%" y="-20%" width="140%" height="140%">
      <feGaussianBlur stdDeviation="18"/>
    </filter>
  </defs>
  <ellipse cx="350" cy="826" rx="170" ry="62" fill="#d7ebd2" opacity="0.42" filter="url(#shadow)"/>
  <ellipse cx="350" cy="360" rx="230" ry="280" fill="url(#bg)" opacity="0.7"/>
  <path d="M219 419C190 293 244 167 355 160C475 153 527 292 491 423L473 598C463 698 426 788 350 788C274 788 237 698 227 598L219 419Z" fill="url(#hair)"/>
  <path d="M201 415C182 311 233 189 348 179C460 169 516 305 495 414C475 359 435 315 350 314C261 313 221 359 201 415Z" fill="#eed9a6"/>
  <path d="M350 286C427 286 472 339 472 441V566C472 660 419 726 350 726C281 726 228 660 228 566V441C228 339 273 286 350 286Z" fill="#f6dfd7"/>
  <path d="M267 436C288 387 323 360 350 358C377 360 412 387 433 436" stroke="#e9c4b5" stroke-width="8" stroke-linecap="round"/>
  <ellipse cx="307" cy="486" rx="22" ry="14" fill="#d0d9df"/>
  <ellipse cx="394" cy="486" rx="22" ry="14" fill="#d0d9df"/>
  <circle cx="307" cy="487" r="8" fill="#9cb7c8"/>
  <circle cx="394" cy="487" r="8" fill="#9cb7c8"/>
  <circle cx="307" cy="487" r="3" fill="#2f4654"/>
  <circle cx="394" cy="487" r="3" fill="#2f4654"/>
  <path d="M326 550C336 564 365 564 374 550" stroke="#d09ea6" stroke-width="6" stroke-linecap="round"/>
  <path d="M312 592C330 607 369 607 388 592" stroke="#c98a96" stroke-width="7" stroke-linecap="round"/>
  <path d="M247 446C262 386 298 346 339 326" stroke="#dfc287" stroke-width="22" stroke-linecap="round"/>
  <path d="M454 446C438 386 402 346 361 326" stroke="#dfc287" stroke-width="22" stroke-linecap="round"/>
  <path d="M198 722C223 610 303 576 350 576C397 576 476 610 501 722L530 900H170L198 722Z" fill="url(#sweater)"/>
  <path d="M256 638C272 683 306 712 350 712C394 712 428 683 444 638" stroke="#f4e6de" stroke-width="18" stroke-linecap="round"/>
  <path d="M234 702C278 748 315 769 350 769C385 769 422 748 466 702" stroke="#ebd8ce" stroke-width="12" stroke-linecap="round"/>
</svg>
